<svg width="1920" height="1080" viewBox="0 0 1920 1080" fill="none" xmlns="http://www.w3.org/2000/svg">
<rect width="1920" height="1080" fill="black"/>
<path d="M879.035 363.344C847.395 363.344 826.496 348.305 824.738 323.5L824.641 322.035H845.93L846.125 323.305C848.078 336.293 861.066 344.398 879.914 344.398C898.762 344.398 910.676 335.902 910.676 322.719V322.621C910.676 311.293 902.961 305.141 884.309 301.039L868.977 297.816C841.34 291.957 827.961 279.262 827.961 258.363V258.266C828.059 234.242 849.25 217.738 879.035 217.738C908.43 217.738 928.547 233.754 930.012 257.387L930.109 259.047H908.82L908.723 257.68C906.77 244.594 895.441 236.684 878.742 236.684C861.262 236.781 850.129 245.082 850.129 257.387V257.484C850.129 268.031 858.137 274.477 875.715 278.285L891.145 281.508C920.246 287.66 932.746 299.477 932.746 321.254V321.352C932.746 347.035 912.434 363.344 879.035 363.344ZM1002.07 363.051C972.582 363.051 953.344 342.641 953.344 309.633V309.438C953.344 276.625 972.777 256.312 1001.98 256.312C1031.27 256.312 1050.8 276.527 1050.8 309.438V309.633C1050.8 342.738 1031.47 363.051 1002.07 363.051ZM1002.17 345.375C1018.68 345.375 1029.22 332.289 1029.22 309.633V309.438C1029.22 286.977 1018.48 273.988 1001.98 273.988C985.766 273.988 974.926 286.977 974.926 309.438V309.633C974.926 332.387 985.668 345.375 1002.17 345.375ZM1105.29 362.855C1084.78 362.855 1071.01 350.258 1071.01 331.801V331.605C1071.01 313.734 1084.88 302.797 1109.2 301.332L1137.12 299.672V291.957C1137.12 280.629 1129.8 273.793 1116.71 273.793C1104.51 273.793 1096.99 279.555 1095.23 287.758L1095.04 288.637H1075.11L1075.21 287.562C1076.68 269.887 1092.01 256.312 1117.3 256.312C1142.4 256.312 1158.32 269.594 1158.32 290.199V361H1137.12V344.789H1136.73C1130.78 355.824 1118.86 362.855 1105.29 362.855ZM1092.3 331.312C1092.3 340.297 1099.72 345.961 1111.05 345.961C1125.89 345.961 1137.12 335.902 1137.12 322.523V314.516L1112.03 316.078C1099.33 316.859 1092.3 322.426 1092.3 331.117V331.312ZM1186.82 361V258.266H1207.92V275.844H1208.41C1211.73 263.832 1220.32 256.312 1232.04 256.312C1235.07 256.312 1237.7 256.801 1239.36 257.094V276.723C1237.7 276.039 1233.99 275.551 1229.89 275.551C1216.32 275.551 1207.92 284.438 1207.92 299.77V361H1186.82ZM830.988 611V470.082H918.977V488.93H852.863V533.559H913.41V552.016H852.863V611H830.988ZM943.48 611V508.266H964.574V525.844H965.062C968.383 513.832 976.977 506.312 988.695 506.312C991.723 506.312 994.359 506.801 996.02 507.094V526.723C994.359 526.039 990.648 525.551 986.547 525.551C972.973 525.551 964.574 534.438 964.574 549.77V611H943.48ZM1056.75 613.051C1027.26 613.051 1008.02 592.641 1008.02 559.633V559.438C1008.02 526.625 1027.46 506.312 1056.66 506.312C1085.95 506.312 1105.48 526.527 1105.48 559.438V559.633C1105.48 592.738 1086.15 613.051 1056.75 613.051ZM1056.85 595.375C1073.36 595.375 1083.9 582.289 1083.9 559.633V559.438C1083.9 536.977 1073.16 523.988 1056.66 523.988C1040.45 523.988 1029.61 536.977 1029.61 559.438V559.633C1029.61 582.387 1040.35 595.375 1056.85 595.375ZM1129.79 611V508.266H1150.89V523.793H1151.38C1156.75 513.344 1167.29 506.312 1182.82 506.312C1205.38 506.312 1218.37 520.863 1218.37 544.496V611H1197.18V548.5C1197.18 533.07 1189.95 524.379 1175.3 524.379C1160.46 524.379 1150.89 535.121 1150.89 551.137V611H1129.79ZM1282.81 613.051C1262.5 613.051 1252.73 604.457 1252.73 583.949V525.062H1237.99V508.266H1252.73V481.508H1274.32V508.266H1293.55V525.062H1274.32V582.68C1274.32 593.129 1279 596.254 1287.89 596.254C1290.14 596.254 1291.99 596.059 1293.55 595.863V612.172C1291.11 612.562 1287.11 613.051 1282.81 613.051ZM1319.91 563.344V544.301H1382.71V563.344H1319.91ZM1415.71 611V470.082H1505.16V488.93H1437.58V530.043H1501.55V548.402H1437.58V592.152H1505.16V611H1415.71ZM1533.08 611V508.266H1554.18V523.793H1554.66C1560.04 513.344 1570.58 506.312 1586.11 506.312C1608.67 506.312 1621.66 520.863 1621.66 544.496V611H1600.46V548.5C1600.46 533.07 1593.24 524.379 1578.59 524.379C1563.75 524.379 1554.18 535.121 1554.18 551.137V611H1533.08ZM1688.45 613.051C1662.27 613.051 1645.48 592.348 1645.48 559.633V559.535C1645.48 526.82 1662.47 506.312 1688.25 506.312C1702.8 506.312 1714.52 513.637 1720.67 525.746H1721.06V470.082H1742.25V611H1721.06V593.617H1720.67C1714.52 605.629 1703.19 613.051 1688.45 613.051ZM1694.01 594.887C1709.93 594.887 1721.16 581.02 1721.16 559.633V559.535C1721.16 538.246 1709.83 524.379 1694.01 524.379C1677.41 524.379 1667.06 537.855 1667.06 559.535V559.633C1667.06 581.508 1677.31 594.887 1694.01 594.887ZM865.949 861V738.93H822.785V720.082H930.891V738.93H887.824V861H865.949ZM958.812 862.855C938.305 862.855 924.535 850.258 924.535 831.801V831.605C924.535 813.734 938.402 802.797 962.719 801.332L990.648 799.672V791.957C990.648 780.629 983.324 773.793 970.238 773.793C958.031 773.793 950.512 779.555 948.754 787.758L948.559 788.637H928.637L928.734 787.562C930.199 769.887 945.531 756.312 970.824 756.312C995.922 756.312 1011.84 769.594 1011.84 790.199V861H990.648V844.789H990.258C984.301 855.824 972.387 862.855 958.812 862.855ZM945.824 831.312C945.824 840.297 953.246 845.961 964.574 845.961C979.418 845.961 990.648 835.902 990.648 822.523V814.516L965.551 816.078C952.855 816.859 945.824 822.426 945.824 831.117V831.312ZM1078.82 863.051C1053.14 863.051 1038.1 850.355 1035.95 831.605L1035.86 830.727H1056.75L1056.95 831.703C1058.9 841.176 1065.93 846.742 1078.92 846.742C1091.62 846.742 1099.23 841.469 1099.23 833.168V833.07C1099.23 826.43 1095.52 822.621 1084.49 819.984L1067.69 816.176C1048.16 811.684 1038.49 802.309 1038.49 787.367V787.27C1038.49 768.91 1054.51 756.312 1078.14 756.312C1102.46 756.312 1117.11 769.887 1118.18 787.367L1118.28 788.539H1098.45L1098.36 787.855C1097.09 778.871 1090.05 772.621 1078.14 772.621C1066.81 772.621 1059.68 777.992 1059.68 786.195V786.293C1059.68 792.641 1063.88 796.938 1074.92 799.574L1091.62 803.383C1112.61 808.266 1120.62 816.566 1120.62 831.312V831.41C1120.62 850.16 1103.04 863.051 1078.82 863.051ZM1146.2 861V720.082H1167.29V802.113H1167.78L1208.99 758.266H1233.8L1191.61 802.602L1235.46 861H1210.95L1176.08 815.297L1167.29 823.988V861H1146.2Z" fill="#D8D9DB"/>
<path d="M577.198 404.802C577.198 356.494 551.19 311.449 509.328 287.219C488.831 275.359 465.386 269.091 441.514 269.091C417.655 269.091 394.197 275.359 373.686 287.219C350.365 300.719 331.975 320.665 320.252 344.041C320.211 344.11 320.184 344.179 320.142 344.248C318.448 347.65 316.919 351.149 315.514 354.689C314.935 356.149 314.357 357.623 313.833 359.111C312.428 363.037 311.161 367.018 310.114 371.068C309.508 373.395 308.971 375.737 308.502 378.093C306.739 386.812 305.83 395.752 305.83 404.802H577.225H577.198Z" fill="white"/>
<path d="M305.802 676.198C305.802 724.506 331.81 769.551 373.672 793.781C394.169 805.641 417.614 811.909 441.486 811.909C465.345 811.909 488.803 805.641 509.314 793.781C532.635 780.281 551.025 760.335 562.748 736.959C562.789 736.89 562.816 736.821 562.858 736.752C564.552 733.35 566.081 729.851 567.486 726.311C568.065 724.851 568.643 723.377 569.167 721.889C570.572 717.963 571.839 713.982 572.886 709.933C573.492 707.605 574.029 705.263 574.498 702.907C576.261 694.188 577.17 685.248 577.17 676.198H305.802Z" fill="white"/>
<path d="M577.198 676.198C625.506 676.198 670.551 650.19 694.781 608.328C706.641 587.831 712.909 564.386 712.909 540.514C712.909 516.655 706.641 493.197 694.781 472.686C681.295 449.365 661.335 430.975 637.959 419.239C637.89 419.197 637.821 419.17 637.752 419.128C634.35 417.434 630.851 415.905 627.311 414.5C625.851 413.922 624.377 413.343 622.889 412.82C618.963 411.414 614.982 410.147 610.933 409.1C608.605 408.494 606.263 407.957 603.907 407.489C595.188 405.725 586.248 404.816 577.198 404.816V676.211V676.198Z" fill="white"/>
<path d="M305.802 404.802C257.494 404.802 212.449 430.81 188.219 472.672C176.359 493.169 170.091 516.614 170.091 540.486C170.091 564.345 176.359 587.803 188.219 608.314C201.705 631.635 221.665 650.025 245.041 661.761C245.11 661.803 245.179 661.83 245.248 661.872C248.65 663.566 252.149 665.095 255.689 666.5C257.149 667.078 258.623 667.657 260.111 668.18C264.037 669.586 268.018 670.853 272.068 671.9C274.395 672.506 276.737 673.043 279.093 673.511C287.812 675.275 296.752 676.184 305.802 676.184V404.802Z" fill="white"/>
</svg>
